<svg
  width="15"
  height="12"
  viewBox="0 0 15 12"
  fill="none"
  xmlns="http://www.w3.org/2000/svg"
>
  <path
    d="M0.71875 5.46875L4.96875 1.46875C5.28125 1.1875 5.75 1.1875 6.03125 1.5C6.3125 1.8125 6.3125 2.28125 6 2.5625L3.125 5.25H5.75H9.75C10.1562 5.25 10.5 5.59375 10.5 6C10.5 6.4375 10.1562 6.75 9.75 6.75H5.75H3.125L6 9.46875C6.3125 9.75 6.3125 10.2188 6.03125 10.5312C5.75 10.8438 5.28125 10.8438 4.96875 10.5625L0.71875 6.5625C0.5625 6.40625 0.5 6.21875 0.5 6C0.5 5.8125 0.5625 5.625 0.71875 5.46875ZM13 11.25V0.75C13 0.34375 13.3125 0 13.75 0C14.1562 0 14.5 0.34375 14.5 0.75V11.25C14.5 11.6875 14.1562 12 13.75 12C13.3125 12 13 11.6875 13 11.25Z"
    fill="currentColor"
  />
</svg>
