<svg
  width="14"
  height="12"
  viewBox="0 0 14 12"
  fill="none"
  xmlns="http://www.w3.org/2000/svg"
>
  <path
    d="M0 0.75C0 0.34375 0.3125 0 0.75 0H13.25C13.6562 0 14 0.34375 14 0.75C14 1.1875 13.6562 1.5 13.25 1.5H0.75C0.3125 1.5 0 1.1875 0 0.75ZM0 5.75C0 5.34375 0.3125 5 0.75 5H13.25C13.6562 5 14 5.34375 14 5.75C14 6.1875 13.6562 6.5 13.25 6.5H0.75C0.3125 6.5 0 6.1875 0 5.75ZM14 10.75C14 11.1875 13.6562 11.5 13.25 11.5H0.75C0.3125 11.5 0 11.1875 0 10.75C0 10.3438 0.3125 10 0.75 10H13.25C13.6562 10 14 10.3438 14 10.75Z"
    fill="currentColor"
  />
</svg>
