<svg
  width="18"
  height="16"
  viewBox="0 0 18 16"
  fill="none"
  xmlns="http://www.w3.org/2000/svg"
>
  <path
    d="M10.6875 1.5H7.75V4H12.125L11.1562 1.8125C11.0625 1.625 10.875 1.5 10.6875 1.5ZM1.5 5.5V12C1.5 12.2812 1.71875 12.5 2 12.5H8.375C8.5625 13.0625 8.875 13.5625 9.25 14H2C0.875 14 0 13.125 0 12V4.9375C0 4.65625 0.03125 4.375 0.15625 4.125L1.46875 1.1875C1.78125 0.46875 2.5 0 3.28125 0H10.6875C11.4688 0 12.1875 0.46875 12.5 1.1875L13.8125 4.125C13.9375 4.375 14 4.65625 14 4.9375V5.03125C13.8125 5.03125 13.6562 5 13.5 5C12.6562 5 11.875 5.1875 11.1875 5.5H1.5ZM1.84375 4H6.25V1.5H3.28125C3.09375 1.5 2.90625 1.625 2.84375 1.8125L1.84375 4ZM18 10.5C18 12.125 17.125 13.5938 15.75 14.4062C14.3438 15.2188 12.625 15.2188 11.25 14.4062C9.84375 13.5938 9 12.125 9 10.5C9 8.90625 9.84375 7.4375 11.25 6.625C12.625 5.8125 14.3438 5.8125 15.75 6.625C17.125 7.4375 18 8.90625 18 10.5ZM15.5938 9.15625C15.4062 8.96875 15.0625 8.96875 14.875 9.15625L13 11.0625L12.0938 10.1562C11.9062 9.96875 11.5625 9.96875 11.375 10.1562C11.1875 10.3438 11.1875 10.6875 11.375 10.875L12.625 12.125C12.8125 12.3125 13.1562 12.3125 13.3438 12.125L15.5938 9.875C15.7812 9.6875 15.7812 9.34375 15.5938 9.15625Z"
    fill="currentColor"
  />
</svg>
