<svg
  width="19"
  height="15"
  viewBox="0 0 19 15"
  fill="none"
  xmlns="http://www.w3.org/2000/svg"
>
  <path
    d="M1.5 3.5V7H5.5V3.5C5.5 2.40625 4.59375 1.5 3.5 1.5C2.375 1.5 1.5 2.40625 1.5 3.5ZM0 3.5C0 1.59375 1.5625 0 3.5 0C5.40625 0 7 1.59375 7 3.5V4.28125C7.09375 3.25 7.59375 2.3125 8.46875 1.6875C10.0312 0.53125 12.2188 0.9375 13.3438 2.5625L17.3438 8.40625C18.4688 10.0312 18.0938 12.25 16.5 13.375C14.9062 14.5 12.7188 14.125 11.625 12.5L7.59375 6.65625C7.25 6.125 7.03125 5.53125 7 4.9375V10.5C7 12.4375 5.40625 14 3.5 14C1.5625 14 0 12.4375 0 10.5V3.5ZM8.84375 5.8125L10.875 8.78125L14.1875 6.4375L12.0938 3.40625C11.4688 2.46875 10.2188 2.25 9.34375 2.90625C8.4375 3.5625 8.1875 4.84375 8.84375 5.8125Z"
    fill="currentColor"
  />
</svg>
