<svg
  width="14"
  height="14"
  viewBox="0 0 14 14"
  fill="none"
  xmlns="http://www.w3.org/2000/svg"
>
  <path
    d="M7.5 1.5H6.5V12.5H7.5V1.5ZM6.5 0H7.5C8.3125 0 9 0.6875 9 1.5V12.5C9 13.3438 8.3125 14 7.5 14H6.5C5.65625 14 5 13.3438 5 12.5V1.5C5 0.6875 5.65625 0 6.5 0ZM2.5 7.5H1.5V12.5H2.5V7.5ZM1.5 6H2.5C3.3125 6 4 6.6875 4 7.5V12.5C4 13.3438 3.3125 14 2.5 14H1.5C0.65625 14 0 13.3438 0 12.5V7.5C0 6.6875 0.65625 6 1.5 6ZM11.5 3.5V12.5H12.5V3.5H11.5ZM10 3.5C10 2.6875 10.6562 2 11.5 2H12.5C13.3125 2 14 2.6875 14 3.5V12.5C14 13.3438 13.3125 14 12.5 14H11.5C10.6562 14 10 13.3438 10 12.5V3.5Z"
    fill="currentColor"
  />
</svg>
