<svg
  width="20"
  height="19"
  viewBox="0 0 20 19"
  fill="none"
  xmlns="http://www.w3.org/2000/svg"
>
  <path
    d="M10 18.75C6.76562 18.75 3.8125 17.0625 2.19531 14.25C0.578125 11.4727 0.578125 8.0625 2.19531 5.25C3.8125 2.47266 6.76562 0.75 10 0.75C13.1992 0.75 16.1523 2.47266 17.7695 5.25C19.3867 8.0625 19.3867 11.4727 17.7695 14.25C16.1523 17.0625 13.1992 18.75 10 18.75ZM13.9727 8.09766H13.9375C14.2891 7.78125 14.2891 7.25391 13.9375 6.90234C13.6211 6.58594 13.0938 6.58594 12.7773 6.90234L8.875 10.8398L7.22266 9.1875C6.87109 8.83594 6.34375 8.83594 6.02734 9.1875C5.67578 9.50391 5.67578 10.0312 6.02734 10.3477L8.27734 12.5977C8.59375 12.9492 9.12109 12.9492 9.47266 12.5977L13.9727 8.09766Z"
    fill="currentColor"
  />
</svg>
