<svg
  width="20"
  height="19"
  viewBox="0 0 20 19"
  fill="none"
  xmlns="http://www.w3.org/2000/svg"
>
  <path
    d="M10 17.0625C12.6016 17.0625 14.9922 15.6914 16.3281 13.4062C17.6289 11.1562 17.6289 8.37891 16.3281 6.09375C14.9922 3.84375 12.6016 2.4375 10 2.4375C7.36328 2.4375 4.97266 3.84375 3.63672 6.09375C2.33594 8.37891 2.33594 11.1562 3.63672 13.4062C4.97266 15.6914 7.36328 17.0625 10 17.0625ZM10 0.75C13.1992 0.75 16.1523 2.47266 17.7695 5.25C19.3867 8.0625 19.3867 11.4727 17.7695 14.25C16.1523 17.0625 13.1992 18.75 10 18.75C6.76562 18.75 3.8125 17.0625 2.19531 14.25C0.578125 11.4727 0.578125 8.0625 2.19531 5.25C3.8125 2.47266 6.76562 0.75 10 0.75ZM7.75 13.6875C7.25781 13.6875 6.90625 13.3359 6.90625 12.8438C6.90625 12.3867 7.25781 12 7.75 12H11.0547L6.30859 7.25391C5.95703 6.9375 5.95703 6.41016 6.30859 6.05859C6.625 5.74219 7.15234 5.74219 7.50391 6.05859L12.25 10.8398V7.21875C12.25 6.76172 12.6016 6.375 13.0938 6.375C13.5508 6.375 13.9375 6.76172 13.9375 7.21875V12.8438C13.9375 13.3359 13.5508 13.6875 13.0938 13.6875H7.75Z"
    fill="currentColor"
  />
</svg>
