<svg
  width="18"
  height="16"
  viewBox="0 0 18 16"
  fill="none"
  xmlns="http://www.w3.org/2000/svg"
>
  <path
    d="M9 1.5C6.65625 1.5 4.53125 2.75 3.34375 4.75C2.1875 6.78125 2.1875 9.25 3.34375 11.25C4.53125 13.2812 6.65625 14.5 9 14.5C11.3125 14.5 13.4375 13.2812 14.625 11.25C15.7812 9.25 15.7812 6.78125 14.625 4.75C13.4375 2.75 11.3125 1.5 9 1.5ZM9 16C6.125 16 3.5 14.5 2.0625 12C0.625 9.53125 0.625 6.5 2.0625 4C3.5 1.53125 6.125 0 9 0C11.8438 0 14.4688 1.53125 15.9062 4C17.3438 6.5 17.3438 9.53125 15.9062 12C14.4688 14.5 11.8438 16 9 16ZM11 4.5V4.53125C11.4062 4.53125 11.75 4.84375 11.75 5.28125C11.75 5.6875 11.4062 6.03125 11 6.03125H8.03125L12.25 10.25C12.5625 10.5312 12.5625 11 12.25 11.2812C11.9688 11.5938 11.5 11.5938 11.2188 11.2812L7 7.0625V10.25C7 10.6875 6.65625 11 6.25 11C5.8125 11 5.5 10.6875 5.5 10.25V5.25C5.5 4.84375 5.8125 4.5 6.25 4.5H11Z"
    fill="currentColor"
  />
</svg>
