<svg
  width="19"
  height="19"
  viewBox="0 0 19 19"
  fill="none"
  xmlns="http://www.w3.org/2000/svg"
>
  <path
    d="M15.5039 2.32422H15.4688C15.1523 2.00781 14.625 2.00781 14.3086 2.32422L13.2539 3.34375L14.9062 4.99609L15.9258 3.94141C16.2422 3.625 16.2422 3.09766 15.9258 2.74609L15.5039 2.32422ZM7.34766 9.28516C7.24219 9.35547 7.17188 9.49609 7.13672 9.63672L6.53906 11.6758L8.61328 11.1133C8.75391 11.0781 8.85938 11.0078 8.96484 10.9023L13.7109 6.15625L12.0938 4.53906L7.34766 9.28516ZM13.1133 1.12891C14.0977 0.144531 15.6797 0.144531 16.6641 1.12891L17.1211 1.58594C18.1055 2.57031 18.1055 4.15234 17.1211 5.13672L10.1602 12.0977C9.87891 12.3789 9.49219 12.5898 9.07031 12.7305L5.55469 13.7148C5.27344 13.8203 4.95703 13.75 4.74609 13.5039C4.5 13.293 4.42969 12.9766 4.5 12.6953L5.51953 9.17969C5.625 8.75781 5.87109 8.37109 6.15234 8.08984L13.1133 1.12891ZM3.09375 2.5H7.03125C7.48828 2.5 7.875 2.88672 7.875 3.34375C7.875 3.83594 7.48828 4.1875 7.03125 4.1875H3.09375C2.28516 4.1875 1.6875 4.82031 1.6875 5.59375V15.1562C1.6875 15.9648 2.28516 16.5625 3.09375 16.5625H12.6562C13.4297 16.5625 14.0625 15.9648 14.0625 15.1562V11.2188C14.0625 10.7617 14.4141 10.375 14.9062 10.375C15.3633 10.375 15.75 10.7617 15.75 11.2188V15.1562C15.75 16.8789 14.3438 18.25 12.6562 18.25H3.09375C1.37109 18.25 0 16.8789 0 15.1562V5.59375C0 3.90625 1.37109 2.5 3.09375 2.5Z"
    fill="currentColor"
  />
</svg>
