<svg
  width="21"
  height="19"
  viewBox="0 0 21 19"
  fill="none"
  xmlns="http://www.w3.org/2000/svg"
>
  <path
    d="M12.0625 16.5V13.6875H13.75V16.5C13.75 17.7656 12.7305 18.75 11.5 18.75H2.5C1.23438 18.75 0.25 17.7656 0.25 16.5V3C0.25 1.76953 1.23438 0.75 2.5 0.75H8.30078C8.89844 0.75 9.46094 0.996094 9.88281 1.41797L13.082 4.61719C13.5039 5.03906 13.75 5.60156 13.75 6.19922V9.75H12.0625V6.375H9.25C8.61719 6.375 8.125 5.88281 8.125 5.25V2.4375H2.5C2.18359 2.4375 1.9375 2.71875 1.9375 3V16.5C1.9375 16.8164 2.18359 17.0625 2.5 17.0625H11.5C11.7812 17.0625 12.0625 16.8164 12.0625 16.5ZM17.4414 8.30859L20.2539 11.1211C20.5703 11.4727 20.5703 12 20.2539 12.3164L17.4414 15.1289C17.0898 15.4805 16.5625 15.4805 16.2461 15.1289C15.8945 14.8125 15.8945 14.2852 16.2461 13.9336L17.6172 12.5625H7.84375C7.35156 12.5625 7 12.2109 7 11.7188C7 11.2617 7.35156 10.875 7.84375 10.875H17.6172L16.2461 9.50391C15.8945 9.1875 15.8945 8.66016 16.2461 8.30859C16.5625 7.99219 17.0898 7.99219 17.4414 8.30859Z"
    fill="currentColor"
  />
</svg>
