<svg
  width="14"
  height="16"
  viewBox="0 0 14 16"
  fill="none"
  xmlns="http://www.w3.org/2000/svg"
>
  <path
    d="M5.5 6.15625C5.5 6.8125 5.3125 7.4375 4.96875 8L3.71875 10H10.25L9 8C8.65625 7.4375 8.5 6.8125 8.5 6.15625V1.5H5.5V6.15625ZM10 1.5V6.15625C10 6.53125 10.0938 6.90625 10.2812 7.21875L13.6562 12.7188C13.875 13.0625 14 13.4375 14 13.8438C14 15.0312 13 16 11.8125 16H2.15625C0.96875 16 0 15.0312 0 13.8438C0 13.4375 0.09375 13.0625 0.3125 12.7188L3.6875 7.21875C3.875 6.90625 4 6.53125 4 6.15625V1.5H3.75C3.3125 1.5 3 1.1875 3 0.75C3 0.34375 3.3125 0 3.75 0H5H9H10.25C10.6562 0 11 0.34375 11 0.75C11 1.1875 10.6562 1.5 10.25 1.5H10Z"
    fill="currentColor"
  />
</svg>
