<svg
  width="21"
  height="19"
  viewBox="0 0 21 19"
  fill="none"
  xmlns="http://www.w3.org/2000/svg"
>
  <path
    d="M10.0625 0.960938C10.3789 0.714844 10.8359 0.714844 11.1523 0.960938L20.4336 8.83594C20.7852 9.15234 20.8555 9.67969 20.5391 10.0312C20.2227 10.3828 19.6953 10.418 19.3438 10.1367L18.5 9.39844V15.9375C18.5 17.5195 17.2344 18.75 15.6875 18.75H5.5625C3.98047 18.75 2.75 17.5195 2.75 15.9375V9.39844L1.87109 10.1367C1.51953 10.418 0.992188 10.3828 0.675781 10.0312C0.394531 9.67969 0.429688 9.15234 0.78125 8.83594L10.0625 0.960938ZM10.625 2.71875L4.4375 7.95703V15.9375C4.4375 16.5703 4.92969 17.0625 5.5625 17.0625H15.6875C16.2852 17.0625 16.8125 16.5703 16.8125 15.9375V7.95703L10.625 2.71875ZM9.5 8.0625C9.5 7.78125 9.74609 7.5 10.0625 7.5H11.1875C11.4688 7.5 11.75 7.78125 11.75 8.0625V9.75H13.4375C13.7188 9.75 14 10.0312 14 10.3125V11.4375C14 11.7539 13.7188 12 13.4375 12H11.75V13.6875C11.75 14.0039 11.4688 14.25 11.1875 14.25H10.0625C9.74609 14.25 9.5 14.0039 9.5 13.6875V12H7.8125C7.49609 12 7.25 11.7539 7.25 11.4375V10.3125C7.25 10.0312 7.49609 9.75 7.8125 9.75H9.5V8.0625Z"
    fill="currentColor"
  />
</svg>
