<svg
  width="14"
  height="12"
  viewBox="0 0 14 12"
  fill="none"
  xmlns="http://www.w3.org/2000/svg"
>
  <path
    d="M5 2.59375L1.5625 6L5 9.4375V7.75C5 7.34375 5.3125 7 5.75 7H9.5V5H5.75C5.3125 5 5 4.6875 5 4.25V2.59375ZM0 6C0 5.65625 0.125 5.3125 0.375 5.0625L4 1.4375C4.28125 1.15625 4.65625 1 5.03125 1C5.84375 1 6.5 1.65625 6.5 2.46875V3.5H9.5C10.3125 3.5 11 4.1875 11 5V7C11 7.84375 10.3125 8.5 9.5 8.5H6.5V9.5625C6.5 10.375 5.84375 11 5.03125 11C4.65625 11 4.28125 10.875 4 10.5938L0.375 6.96875C0.125 6.71875 0 6.375 0 6ZM12.5 0.75C12.5 0.34375 12.8125 0 13.25 0C13.6562 0 14 0.34375 14 0.75V11.25C14 11.6875 13.6562 12 13.25 12C12.8125 12 12.5 11.6875 12.5 11.25V0.75Z"
    fill="currentColor"
  />
</svg>
