<svg
  width="15"
  height="14"
  viewBox="0 0 15 14"
  fill="none"
  xmlns="http://www.w3.org/2000/svg"
>
  <path
    d="M5.84375 2.5H11.5V1.5H5.84375L5.34375 2L5.84375 2.5ZM3.59375 2.375C3.40625 2.1875 3.40625 1.84375 3.59375 1.65625L4.9375 0.3125C5.125 0.125 5.375 0 5.65625 0H12C12.5312 0 13 0.46875 13 1V3C13 3.5625 12.5312 4 12 4H5.65625C5.375 4 5.125 3.90625 4.9375 3.71875L3.59375 2.375ZM1 3C0.4375 3 0 2.5625 0 2C0 1.46875 0.4375 1 1 1C1.53125 1 2 1.46875 2 2C2 2.5625 1.53125 3 1 3ZM1 8C0.4375 8 0 7.5625 0 7C0 6.46875 0.4375 6 1 6C1.53125 6 2 6.46875 2 7C2 7.5625 1.53125 8 1 8ZM0 12C0 11.4688 0.4375 11 1 11C1.53125 11 2 11.4688 2 12C2 12.5625 1.53125 13 1 13C0.4375 13 0 12.5625 0 12ZM5.84375 12.5H11.5V11.5H5.84375L5.34375 12L5.84375 12.5ZM3.59375 12.375C3.40625 12.1875 3.40625 11.8438 3.59375 11.6562L4.9375 10.3125C5.125 10.125 5.375 10 5.65625 10H12C12.5312 10 13 10.4688 13 11V13C13 13.5625 12.5312 14 12 14H5.65625C5.375 14 5.125 13.9062 4.9375 13.7188L3.59375 12.375ZM5.34375 7L5.84375 7.5H13.5V6.5H5.84375L5.34375 7ZM4.9375 8.71875L3.59375 7.375C3.40625 7.1875 3.40625 6.84375 3.59375 6.65625L4.9375 5.3125C5.125 5.125 5.375 5 5.65625 5H14C14.5312 5 15 5.46875 15 6V8C15 8.5625 14.5312 9 14 9H5.65625C5.375 9 5.125 8.90625 4.9375 8.71875Z"
    fill="currentColor"
  />
</svg>
