<svg
  width="45"
  height="37"
  viewBox="0 0 45 37"
  fill="none"
  xmlns="http://www.w3.org/2000/svg"
>
  <path
    d="M22.9219 3.03125C22.6406 2.96094 22.2891 2.96094 22.0078 3.03125L3.58594 10.8359C2.74219 11.1875 2.25 11.9609 2.25 12.875V35.375C2.25 36.0078 1.6875 36.5 1.125 36.5C0.492188 36.5 0 36.0078 0 35.375V12.875C0 11.1172 1.05469 9.42969 2.74219 8.72656L21.1641 0.992188C22.0078 0.640625 22.9219 0.640625 23.7656 0.992188L42.1875 8.72656C43.875 9.42969 45 11.1172 45 12.875V35.375C45 36.0078 44.4375 36.5 43.875 36.5C43.2422 36.5 42.75 36.0078 42.75 35.375V12.875C42.75 11.9609 42.1875 11.1875 41.3438 10.8359L22.9219 3.03125ZM6.75 16.25C6.75 15.0547 7.73438 14 9 14H36C37.1953 14 38.25 15.0547 38.25 16.25V35.375C38.25 36.0078 37.6875 36.5 37.125 36.5C37.0547 36.5 37.0547 36.5 37.0547 36.5H7.875C7.24219 36.5 6.75 36.0078 6.75 35.375V16.25ZM9 34.25H36V29.75H9V34.25ZM36 23H9V27.5H36V23ZM9 20.75H36V16.25H9V20.75Z"
    fill="currentColor"
  />
</svg>
