<svg
  width="45"
  height="37"
  viewBox="0 0 45 37"
  fill="none"
  xmlns="http://www.w3.org/2000/svg"
>
  <path
    d="M11.25 5C11.25 2.53906 13.2188 0.5 15.75 0.5H29.25C31.7109 0.5 33.75 2.53906 33.75 5V7.25H40.5C42.9609 7.25 45 9.28906 45 11.75V32C45 34.5312 42.9609 36.5 40.5 36.5H29.25H24.75H20.25H15.75H4.5C1.96875 36.5 0 34.5312 0 32V11.75C0 9.28906 1.96875 7.25 4.5 7.25H11.25V5ZM33.75 24.125V34.25H40.5C41.6953 34.25 42.75 33.2656 42.75 32V23H37.125C36.4922 23 36 22.5078 36 21.875C36 21.3125 36.4922 20.75 37.125 20.75H42.75V16.25H37.125C36.4922 16.25 36 15.7578 36 15.125C36 14.5625 36.4922 14 37.125 14H42.75V11.75C42.75 10.5547 41.6953 9.5 40.5 9.5H33.75V24.125ZM11.25 9.5H4.5C3.23438 9.5 2.25 10.5547 2.25 11.75V14H7.875C8.4375 14 9 14.5625 9 15.125C9 15.7578 8.4375 16.25 7.875 16.25H2.25V20.75H7.875C8.4375 20.75 9 21.3125 9 21.875C9 22.5078 8.4375 23 7.875 23H2.25V32C2.25 33.2656 3.23438 34.25 4.5 34.25H11.25V9.5ZM31.5 24.125V5C31.5 3.80469 30.4453 2.75 29.25 2.75H15.75C14.4844 2.75 13.5 3.80469 13.5 5V34.25H18V29.75C18 27.2891 19.9688 25.25 22.5 25.25C24.9609 25.25 27 27.2891 27 29.75V34.25H31.5V24.125ZM24.75 29.75C24.75 28.5547 23.6953 27.5 22.5 27.5C21.2344 27.5 20.25 28.5547 20.25 29.75V34.25H24.75V29.75ZM21.375 5H23.625C24.5391 5 25.3125 5.77344 25.3125 6.6875V7.8125H26.4375C27.3516 7.8125 28.125 8.58594 28.125 9.5V11.75C28.125 12.7344 27.3516 13.4375 26.4375 13.4375H25.3125V14.5625C25.3125 15.5469 24.5391 16.25 23.625 16.25H21.375C20.3906 16.25 19.6875 15.5469 19.6875 14.5625V13.4375H18.5625C17.5781 13.4375 16.875 12.7344 16.875 11.75V9.5C16.875 8.58594 17.5781 7.8125 18.5625 7.8125H19.6875V6.6875C19.6875 5.77344 20.3906 5 21.375 5ZM21.9375 8.9375C21.9375 9.57031 21.375 10.0625 20.8125 10.0625H19.125V11.1875H20.8125C21.375 11.1875 21.9375 11.75 21.9375 12.3125V14H23.0625V12.3125C23.0625 11.75 23.5547 11.1875 24.1875 11.1875H25.875V10.0625H24.1875C23.5547 10.0625 23.0625 9.57031 23.0625 8.9375V7.25H21.9375V8.9375Z"
    fill="currentColor"
  />
</svg>
