<svg
  width="39"
  height="37"
  viewBox="0 0 39 37"
  fill="none"
  xmlns="http://www.w3.org/2000/svg"
>
  <path
    d="M30.4688 29.8203C33.4219 26.9375 35.25 22.9297 35.25 18.5C35.25 9.85156 28.1484 2.75 19.5 2.75C10.7812 2.75 3.75 9.85156 3.75 18.5C3.75 22.9297 5.57812 26.9375 8.46094 29.8203C9.44531 25.9531 13.0312 23 17.25 23H21.75C25.8984 23 29.4844 25.9531 30.4688 29.8203ZM28.4297 31.4375V31.5078C28.1484 27.9922 25.2656 25.25 21.75 25.25H17.25C13.6641 25.25 10.7812 27.9922 10.5 31.5078C13.0312 33.2656 16.125 34.25 19.5 34.25C22.8047 34.25 25.8984 33.2656 28.4297 31.4375ZM19.5 36.5C13.0312 36.5 7.125 33.125 3.89062 27.5C0.65625 21.9453 0.65625 15.125 3.89062 9.5C7.125 3.94531 13.0312 0.5 19.5 0.5C25.8984 0.5 31.8047 3.94531 35.0391 9.5C38.2734 15.125 38.2734 21.9453 35.0391 27.5C31.8047 33.125 25.8984 36.5 19.5 36.5ZM19.5 18.5C20.6953 18.5 21.75 17.8672 22.3828 16.8125C23.0156 15.8281 23.0156 14.4922 22.3828 13.4375C21.75 12.4531 20.6953 11.75 19.5 11.75C18.2344 11.75 17.1797 12.4531 16.5469 13.4375C15.9141 14.4922 15.9141 15.8281 16.5469 16.8125C17.1797 17.8672 18.2344 18.5 19.5 18.5ZM13.875 15.125C13.875 13.1562 14.9297 11.3281 16.6875 10.2734C18.375 9.28906 20.5547 9.28906 22.3125 10.2734C24 11.3281 25.125 13.1562 25.125 15.125C25.125 17.1641 24 18.9922 22.3125 20.0469C20.5547 21.0312 18.375 21.0312 16.6875 20.0469C14.9297 18.9922 13.875 17.1641 13.875 15.125Z"
    fill="currentColor"
  />
</svg>
