<svg
  width="37"
  height="37"
  viewBox="0 0 37 37"
  fill="none"
  xmlns="http://www.w3.org/2000/svg"
>
  <path
    d="M7.17969 1.27344C7.39062 1.83594 7.03906 2.46875 6.47656 2.67969L3.45312 3.875C3.03125 4.01562 2.75 4.4375 2.75 4.92969V14C2.75 18.9922 6.75781 23 11.75 23C16.6719 23 20.75 18.9922 20.75 14V4.92969C20.75 4.4375 20.3984 4.01562 19.9766 3.875L16.9531 2.67969C16.3906 2.46875 16.0391 1.83594 16.3203 1.27344C16.5312 0.710938 17.1641 0.359375 17.7266 0.570312L20.75 1.76562C22.0859 2.25781 22.9297 3.52344 22.9297 4.92969V14C22.9297 19.8359 18.5 24.6875 12.8047 25.25C12.8047 30.2422 16.8828 34.25 21.8047 34.25C26.7969 34.25 30.8047 30.2422 30.8047 25.25V18.3594C28.9062 17.8672 27.4297 16.1094 27.4297 14C27.4297 11.5391 29.4688 9.5 31.9297 9.5C34.4609 9.5 36.4297 11.5391 36.4297 14C36.4297 16.1094 35.0234 17.8672 33.0547 18.3594V25.25C33.0547 31.5078 28.0625 36.5 21.8047 36.5C15.6172 36.5 10.5547 31.5078 10.5547 25.25C4.92969 24.6875 0.5 19.8359 0.5 14V4.92969C0.5 3.52344 1.34375 2.25781 2.67969 1.76562L5.70312 0.570312C6.26562 0.359375 6.89844 0.710938 7.17969 1.27344ZM32 16.25C33.1953 16.25 34.25 15.2656 34.25 14C34.25 12.8047 33.1953 11.75 32 11.75C30.7344 11.75 29.75 12.8047 29.75 14C29.75 15.2656 30.7344 16.25 32 16.25Z"
    fill="currentColor"
  />
</svg>
