<svg
  width="42"
  height="34"
  viewBox="0 0 42 34"
  fill="none"
  xmlns="http://www.w3.org/2000/svg"
>
  <path
    d="M2.5 15.375H13.75V8.625C13.75 5.53125 11.2188 3 8.125 3C4.96094 3 2.5 5.53125 2.5 8.625V15.375ZM0.25 16.5V8.625C0.25 4.33594 3.76562 0.75 8.125 0.75C12.4141 0.75 16 4.33594 16 8.625V10.3828C16.2109 8.0625 17.3359 5.95312 19.3047 4.54688C22.8906 1.94531 27.7422 2.85938 30.2734 6.51562L39.2734 19.6641C41.8047 23.3203 40.8906 28.3125 37.375 30.8438C33.7891 33.375 28.8672 32.5312 26.4062 28.875L17.3359 15.7266C16.5625 14.5312 16.0703 13.1953 16 11.8594V16.5V24.375C16 28.7344 12.4141 32.25 8.125 32.25C3.76562 32.25 0.25 28.7344 0.25 24.375V16.5ZM13.75 17.625H2.5V24.375C2.5 27.5391 4.96094 30 8.125 30C11.2188 30 13.75 27.5391 13.75 24.375V17.625ZM28.2344 27.6094C30.0625 30.2109 33.5078 30.8438 36.0391 29.0156C38.5703 27.1875 39.2734 23.6016 37.4453 20.9297L33.7188 15.5156L33.5781 15.6562L24.4375 22.0547L28.2344 27.6094ZM32.3125 13.8281L32.4531 13.6875L28.375 7.78125C26.6172 5.17969 23.1016 4.54688 20.5703 6.375C18.0391 8.20312 17.4062 11.7891 19.2344 14.4609L23.1719 20.2266L32.3125 13.8281Z"
    fill="currentColor"
  />
</svg>
