<svg
  width="35"
  height="37"
  viewBox="0 0 35 37"
  fill="none"
  xmlns="http://www.w3.org/2000/svg"
>
  <path
    d="M14 2.75H9.5C8.23438 2.75 7.25 3.80469 7.25 5V8.375H9.5C10.0625 8.375 10.625 8.9375 10.625 9.5C10.625 10.1328 10.0625 10.625 9.5 10.625H7.25V17.375H9.5C10.0625 17.375 10.625 17.9375 10.625 18.5C10.625 19.1328 10.0625 19.625 9.5 19.625H7.25V26.375H9.5C10.0625 26.375 10.625 26.9375 10.625 27.5C10.625 28.1328 10.0625 28.625 9.5 28.625H7.25V32C7.25 33.2656 8.23438 34.25 9.5 34.25H14V2.75ZM16.25 34.25H29.75C30.9453 34.25 32 33.2656 32 32V5C32 3.80469 30.9453 2.75 29.75 2.75H16.25V34.25ZM15.125 36.5H9.5C6.96875 36.5 5 34.5312 5 32V28.625H1.625C0.992188 28.625 0.5 28.1328 0.5 27.5C0.5 26.9375 0.992188 26.375 1.625 26.375H5V19.625H1.625C0.992188 19.625 0.5 19.1328 0.5 18.5C0.5 17.9375 0.992188 17.375 1.625 17.375H5V10.625H1.625C0.992188 10.625 0.5 10.1328 0.5 9.5C0.5 8.9375 0.992188 8.375 1.625 8.375H5V5C5 2.53906 6.96875 0.5 9.5 0.5H15.125H29.75C32.2109 0.5 34.25 2.53906 34.25 5V32C34.25 34.5312 32.2109 36.5 29.75 36.5H15.125Z"
    fill="currentColor"
  />
</svg>
