<svg
  width="45"
  height="37"
  viewBox="0 0 45 37"
  fill="none"
  xmlns="http://www.w3.org/2000/svg"
>
  <path
    d="M6.75 6.125C6.75 7.39062 7.38281 8.44531 8.4375 9.07812C9.42188 9.71094 10.7578 9.71094 11.8125 9.07812C12.7969 8.44531 13.5 7.39062 13.5 6.125C13.5 4.92969 12.7969 3.875 11.8125 3.24219C10.7578 2.60938 9.42188 2.60938 8.4375 3.24219C7.38281 3.875 6.75 4.92969 6.75 6.125ZM15.75 6.125C15.75 8.16406 14.625 9.99219 12.9375 11.0469C11.1797 12.0312 9 12.0312 7.3125 11.0469C5.55469 9.99219 4.5 8.16406 4.5 6.125C4.5 4.15625 5.55469 2.32812 7.3125 1.27344C9 0.289062 11.1797 0.289062 12.9375 1.27344C14.625 2.32812 15.75 4.15625 15.75 6.125ZM22.5 11.75C20.8828 11.75 19.4062 12.6641 18.5625 14C17.7891 15.4062 17.7891 17.1641 18.5625 18.5C19.4062 19.9062 20.8828 20.75 22.5 20.75C24.0469 20.75 25.5234 19.9062 26.3672 18.5C27.1406 17.1641 27.1406 15.4062 26.3672 14C25.5234 12.6641 24.0469 11.75 22.5 11.75ZM22.5 23C20.0391 23 17.8594 21.7344 16.5938 19.625C15.3984 17.5859 15.3984 14.9844 16.5938 12.875C17.8594 10.8359 20.0391 9.5 22.5 9.5C24.8906 9.5 27.0703 10.8359 28.3359 12.875C29.5312 14.9844 29.5312 17.5859 28.3359 19.625C27.0703 21.7344 24.8906 23 22.5 23ZM18.3516 27.5C14.5547 27.5 11.3906 30.5234 11.25 34.25H33.6797C33.5391 30.5234 30.375 27.5 26.5781 27.5H18.3516ZM18.3516 25.25H26.5781C31.7812 25.25 36 29.4688 36 34.6719C36 35.7266 35.1562 36.5 34.1016 36.5H10.8281C9.77344 36.5 9 35.6562 9 34.6719C9 29.4688 13.1484 25.25 18.3516 25.25ZM36 2.75C34.7344 2.75 33.6797 3.45312 33.0469 4.4375C32.4141 5.49219 32.4141 6.82812 33.0469 7.8125C33.6797 8.86719 34.7344 9.5 36 9.5C37.1953 9.5 38.25 8.86719 38.8828 7.8125C39.5156 6.82812 39.5156 5.49219 38.8828 4.4375C38.25 3.45312 37.1953 2.75 36 2.75ZM36 11.75C33.9609 11.75 32.1328 10.6953 31.0781 8.9375C30.0938 7.25 30.0938 5.07031 31.0781 3.3125C32.1328 1.625 33.9609 0.5 36 0.5C37.9688 0.5 39.7969 1.625 40.8516 3.3125C41.8359 5.07031 41.8359 7.25 40.8516 8.9375C39.7969 10.6953 37.9688 11.75 36 11.75ZM37.125 16.25H31.5C31.5 15.4766 31.3594 14.7734 31.2188 14H37.125C41.4141 14 45 17.5859 45 21.875C45 22.5078 44.4375 23 43.875 23C43.2422 23 42.75 22.5078 42.75 21.875C42.75 18.7812 40.2188 16.25 37.125 16.25ZM13.5 16.25H7.875C4.71094 16.25 2.25 18.7812 2.25 21.875C2.25 22.5078 1.6875 23 1.125 23C0.492188 23 0 22.5078 0 21.875C0 17.5859 3.51562 14 7.875 14H13.7812C13.5703 14.7734 13.5 15.4766 13.5 16.25Z"
    fill="currentColor"
  />
</svg>
