<svg
  width="14"
  height="12"
  viewBox="0 0 14 12"
  fill="none"
  xmlns="http://www.w3.org/2000/svg"
>
  <path
    d="M9 2.59375V4.25C9 4.6875 8.65625 5 8.25 5H4.5V7H8.25C8.65625 7 9 7.34375 9 7.75V9.4375L12.4375 6L9 2.59375ZM14 6C14 6.375 13.8438 6.71875 13.5938 6.96875L9.96875 10.5938C9.6875 10.875 9.3125 11 8.9375 11C8.125 11 7.5 10.375 7.5 9.5625V8.5H4.5C3.65625 8.5 3 7.84375 3 7V5C3 4.1875 3.65625 3.5 4.5 3.5H7.5V2.46875C7.5 1.65625 8.125 1 8.9375 1C9.3125 1 9.6875 1.15625 9.96875 1.4375L13.5938 5.0625C13.8438 5.3125 14 5.65625 14 6ZM1.5 0.75V11.25C1.5 11.6875 1.15625 12 0.75 12C0.3125 12 0 11.6875 0 11.25V0.75C0 0.34375 0.3125 0 0.75 0C1.15625 0 1.5 0.34375 1.5 0.75Z"
    fill="currentColor"
  />
</svg>
