<svg
  width="17"
  height="17"
  viewBox="0 0 17 17"
  fill="none"
  xmlns="http://www.w3.org/2000/svg"
>
  <path
    d="M4.92188 3.57422L6.36328 5.01562C6.60938 5.26172 6.75 5.57812 6.75 5.89453C6.75 6.59766 6.1875 7.125 5.48438 7.125H1.40625C0.914062 7.125 0.5625 6.77344 0.5625 6.28125V2.20312C0.5625 1.5 1.08984 0.9375 1.79297 0.9375C2.10938 0.9375 2.42578 1.07812 2.67188 1.32422L3.72656 2.37891C5.13281 1.14844 6.96094 0.375 9 0.375C13.3242 0.375 16.875 3.92578 16.875 8.25C16.875 12.6094 13.3242 16.125 9 16.125C7.20703 16.125 5.58984 15.5625 4.25391 14.5781C3.90234 14.2969 3.79688 13.7695 4.07812 13.3828C4.35938 12.9961 4.88672 12.9258 5.27344 13.207C6.29297 13.9805 7.59375 14.4375 9 14.4375C12.4102 14.4375 15.1875 11.6953 15.1875 8.25C15.1875 4.83984 12.4102 2.0625 9 2.0625C7.45312 2.0625 6.01172 2.66016 4.92188 3.57422ZM2.25 3.25781V5.4375H4.42969L2.25 3.25781Z"
    fill="currentColor"
  />
</svg>
