<svg
  width="16"
  height="16"
  viewBox="0 0 16 16"
  fill="none"
  xmlns="http://www.w3.org/2000/svg"
>
  <path
    d="M2.28125 3.96875C2.09375 4.0625 2 4.21875 2 4.375C2 7.25 3.1875 12.1562 7.8125 14.375C7.90625 14.4375 8.0625 14.4375 8.15625 14.375C12.7812 12.1875 13.9688 7.25 14 4.375C14 4.21875 13.875 4.0625 13.7188 3.96875L8 1.5625L2.28125 3.96875ZM14.2812 2.59375C14.9688 2.90625 15.5 3.5625 15.5 4.375C15.4688 7.5 14.1875 13.1562 8.8125 15.75C8.28125 16 7.6875 16 7.15625 15.75C1.78125 13.1562 0.5 7.5 0.5 4.375C0.46875 3.5625 1 2.90625 1.6875 2.59375L7.5625 0.09375C7.6875 0.03125 7.84375 0 8 0C8.125 0 8.28125 0.03125 8.40625 0.09375L14.2812 2.59375ZM11.5312 6.53125L7.53125 10.5312C7.21875 10.8438 6.75 10.8438 6.46875 10.5312L4.46875 8.53125C4.15625 8.25 4.15625 7.78125 4.46875 7.5C4.75 7.1875 5.21875 7.1875 5.53125 7.5L7 8.96875L10.4688 5.5C10.75 5.1875 11.2188 5.1875 11.5312 5.5C11.8125 5.78125 11.8125 6.25 11.5312 6.53125Z"
    fill="currentColor"
  />
</svg>
