<svg
  width="18"
  height="18"
  viewBox="0 0 18 18"
  fill="none"
  xmlns="http://www.w3.org/2000/svg"
>
  <path
    d="M13.7188 1.21875C14 0.9375 14.4688 0.9375 14.7812 1.21875L15.7812 2.21875L16.75 3.21875C17.0625 3.53125 17.0625 4 16.75 4.28125C16.4688 4.59375 16 4.59375 15.7188 4.28125L15.25 3.8125L14.0625 5L15.7812 6.71875C16.0625 7.03125 16.0625 7.5 15.7812 7.78125C15.4688 8.09375 15 8.09375 14.7188 7.78125L12.4688 5.53125L10.2188 3.28125C9.90625 3 9.90625 2.53125 10.2188 2.21875C10.5 1.9375 10.9688 1.9375 11.2812 2.21875L13 3.96875L14.1875 2.75L13.7188 2.28125C13.4062 2 13.4062 1.53125 13.7188 1.21875ZM9.46875 3.96875L9.5 4L10.5312 5.03125L10.125 5.4375L10.8438 6.15625C11.0312 6.34375 11.0312 6.6875 10.8438 6.875C10.6562 7.0625 10.3125 7.0625 10.125 6.875L9.40625 6.15625L8.125 7.4375L8.84375 8.15625C9.03125 8.34375 9.03125 8.6875 8.84375 8.875C8.65625 9.0625 8.3125 9.0625 8.125 8.875L7.40625 8.15625L6.125 9.4375L6.84375 10.1562C7.03125 10.3438 7.03125 10.6875 6.84375 10.875C6.65625 11.0625 6.3125 11.0625 6.125 10.875L5.40625 10.1562L4.5625 11C4.5 11.0625 4.5 11.125 4.5 11.1875V13.5H6.8125C6.875 13.5 6.9375 13.4688 7 13.4375L12.9688 7.46875L14 8.5L14.0312 8.53125L8.0625 14.5C7.71875 14.8125 7.28125 15 6.8125 15H4.03125L2.25 16.7812C1.96875 17.0938 1.5 17.0938 1.21875 16.7812C0.90625 16.5 0.90625 16.0312 1.21875 15.7188L3 13.9688V11.1875C3 10.7188 3.15625 10.2812 3.5 9.9375L9.46875 3.96875Z"
    fill="currentColor"
  />
</svg>
