<svg
  width="18"
  height="12"
  viewBox="0 0 18 12"
  fill="none"
  xmlns="http://www.w3.org/2000/svg"
>
  <path
    d="M6 1.5C3.5 1.5 1.5 3.53125 1.5 6C1.5 8.5 3.5 10.5 6 10.5H12C14.4688 10.5 16.5 8.5 16.5 6C16.5 3.53125 14.4688 1.5 12 1.5H6ZM0 6C0 2.6875 2.6875 0 6 0H12C15.3125 0 18 2.6875 18 6C18 9.3125 15.3125 12 12 12H6C2.6875 12 0 9.3125 0 6ZM12 3C13.0625 3 14.0312 3.59375 14.5938 4.5C15.125 5.4375 15.125 6.59375 14.5938 7.5C14.0312 8.4375 13.0625 9 12 9C10.9062 9 9.9375 8.4375 9.375 7.5C8.84375 6.59375 8.84375 5.4375 9.375 4.5C9.9375 3.59375 10.9062 3 12 3Z"
    fill="currentColor"
  />
</svg>
