<svg
  width="20"
  height="639"
  viewBox="0 0 20 639"
  fill="none"
  xmlns="http://www.w3.org/2000/svg"
>
  <path
    d="M10.5 1.5H9.5V12.5H10.5V1.5ZM9.5 0H10.5C11.3125 0 12 0.6875 12 1.5V12.5C12 13.3438 11.3125 14 10.5 14H9.5C8.65625 14 8 13.3438 8 12.5V1.5C8 0.6875 8.65625 0 9.5 0ZM5.5 7.5H4.5V12.5H5.5V7.5ZM4.5 6H5.5C6.3125 6 7 6.6875 7 7.5V12.5C7 13.3438 6.3125 14 5.5 14H4.5C3.65625 14 3 13.3438 3 12.5V7.5C3 6.6875 3.65625 6 4.5 6ZM14.5 3.5V12.5H15.5V3.5H14.5ZM13 3.5C13 2.6875 13.6562 2 14.5 2H15.5C16.3125 2 17 2.6875 17 3.5V12.5C17 13.3438 16.3125 14 15.5 14H14.5C13.6562 14 13 13.3438 13 12.5V3.5Z"
    fill="currentColor"
  />
  <path
    d="M8.84375 58.5H14.5V57.5H8.84375L8.34375 58L8.84375 58.5ZM6.59375 58.375C6.40625 58.1875 6.40625 57.8438 6.59375 57.6562L7.9375 56.3125C8.125 56.125 8.375 56 8.65625 56H15C15.5312 56 16 56.4688 16 57V59C16 59.5625 15.5312 60 15 60H8.65625C8.375 60 8.125 59.9062 7.9375 59.7188L6.59375 58.375ZM4 59C3.4375 59 3 58.5625 3 58C3 57.4688 3.4375 57 4 57C4.53125 57 5 57.4688 5 58C5 58.5625 4.53125 59 4 59ZM4 64C3.4375 64 3 63.5625 3 63C3 62.4688 3.4375 62 4 62C4.53125 62 5 62.4688 5 63C5 63.5625 4.53125 64 4 64ZM3 68C3 67.4688 3.4375 67 4 67C4.53125 67 5 67.4688 5 68C5 68.5625 4.53125 69 4 69C3.4375 69 3 68.5625 3 68ZM8.84375 68.5H14.5V67.5H8.84375L8.34375 68L8.84375 68.5ZM6.59375 68.375C6.40625 68.1875 6.40625 67.8438 6.59375 67.6562L7.9375 66.3125C8.125 66.125 8.375 66 8.65625 66H15C15.5312 66 16 66.4688 16 67V69C16 69.5625 15.5312 70 15 70H8.65625C8.375 70 8.125 69.9062 7.9375 69.7188L6.59375 68.375ZM8.34375 63L8.84375 63.5H16.5V62.5H8.84375L8.34375 63ZM7.9375 64.7188L6.59375 63.375C6.40625 63.1875 6.40625 62.8438 6.59375 62.6562L7.9375 61.3125C8.125 61.125 8.375 61 8.65625 61H17C17.5312 61 18 61.4688 18 62V64C18 64.5625 17.5312 65 17 65H8.65625C8.375 65 8.125 64.9062 7.9375 64.7188Z"
    fill="currentColor"
  />
  <path
    d="M11.6875 113.5H8.75V116H13.125L12.1562 113.812C12.0625 113.625 11.875 113.5 11.6875 113.5ZM2.5 117.5V124C2.5 124.281 2.71875 124.5 3 124.5H9.375C9.5625 125.062 9.875 125.562 10.25 126H3C1.875 126 1 125.125 1 124V116.938C1 116.656 1.03125 116.375 1.15625 116.125L2.46875 113.188C2.78125 112.469 3.5 112 4.28125 112H11.6875C12.4688 112 13.1875 112.469 13.5 113.188L14.8125 116.125C14.9375 116.375 15 116.656 15 116.938V117.031C14.8125 117.031 14.6562 117 14.5 117C13.6562 117 12.875 117.188 12.1875 117.5H2.5ZM2.84375 116H7.25V113.5H4.28125C4.09375 113.5 3.90625 113.625 3.84375 113.812L2.84375 116ZM19 122.5C19 124.125 18.125 125.594 16.75 126.406C15.3438 127.219 13.625 127.219 12.25 126.406C10.8438 125.594 10 124.125 10 122.5C10 120.906 10.8438 119.438 12.25 118.625C13.625 117.812 15.3438 117.812 16.75 118.625C18.125 119.438 19 120.906 19 122.5ZM16.5938 121.156C16.4062 120.969 16.0625 120.969 15.875 121.156L14 123.062L13.0938 122.156C12.9062 121.969 12.5625 121.969 12.375 122.156C12.1875 122.344 12.1875 122.688 12.375 122.875L13.625 124.125C13.8125 124.312 14.1562 124.312 14.3438 124.125L16.5938 121.875C16.7812 121.688 16.7812 121.344 16.5938 121.156Z"
    fill="currentColor"
  />
  <path
    d="M0.53125 170.938L1.8125 168.344C1.90625 168.156 2.125 168.031 2.34375 168.062L10 169L7.375 173.344C7.15625 173.75 6.6875 173.938 6.25 173.812L1.15625 172.344C0.53125 172.188 0.25 171.5 0.53125 170.938ZM10 169L17.625 168.062C17.8438 168.031 18.0625 168.125 18.1562 168.344L19.4375 170.938C19.7188 171.5 19.4375 172.188 18.8125 172.344L13.7188 173.812C13.2812 173.938 12.8125 173.75 12.5938 173.344L10 169ZM9.9375 171H10.0312H9.9375ZM16.5 174.062L18 173.625V178.844C18 179.531 17.5312 180.125 16.8438 180.312L10.4688 181.906C10.1562 181.969 9.8125 181.969 9.5 181.906L3.125 180.312C2.46875 180.125 2 179.531 2 178.844V173.625L3.5 174.062V178.844L9.25 180.281V172.75C9.25 172.344 9.5625 172 10 172C10.4062 172 10.75 172.344 10.75 172.75V180.281L16.5 178.844V174.062Z"
    fill="currentColor"
  />
  <path
    d="M2.5 227.5V231H6.5V227.5C6.5 226.406 5.59375 225.5 4.5 225.5C3.375 225.5 2.5 226.406 2.5 227.5ZM1 227.5C1 225.594 2.5625 224 4.5 224C6.40625 224 8 225.594 8 227.5V228.281C8.09375 227.25 8.59375 226.312 9.46875 225.688C11.0312 224.531 13.2188 224.938 14.3438 226.562L18.3438 232.406C19.4688 234.031 19.0938 236.25 17.5 237.375C15.9062 238.5 13.7188 238.125 12.625 236.5L8.59375 230.656C8.25 230.125 8.03125 229.531 8 228.938V234.5C8 236.438 6.40625 238 4.5 238C2.5625 238 1 236.438 1 234.5V227.5ZM9.84375 229.812L11.875 232.781L15.1875 230.438L13.0938 227.406C12.4688 226.469 11.2188 226.25 10.3438 226.906C9.4375 227.562 9.1875 228.844 9.84375 229.812Z"
    fill="currentColor"
  />
  <path
    d="M3 281.75C3 281.344 3.3125 281 3.75 281H16.25C16.6562 281 17 281.344 17 281.75C17 282.188 16.6562 282.5 16.25 282.5H3.75C3.3125 282.5 3 282.188 3 281.75ZM3 286.75C3 286.344 3.3125 286 3.75 286H16.25C16.6562 286 17 286.344 17 286.75C17 287.188 16.6562 287.5 16.25 287.5H3.75C3.3125 287.5 3 287.188 3 286.75ZM17 291.75C17 292.188 16.6562 292.5 16.25 292.5H3.75C3.3125 292.5 3 292.188 3 291.75C3 291.344 3.3125 291 3.75 291H16.25C16.6562 291 17 291.344 17 291.75Z"
    fill="currentColor"
  />
  <path
    d="M10 354.062C12.6016 354.062 14.9922 352.691 16.3281 350.406C17.6289 348.156 17.6289 345.379 16.3281 343.094C14.9922 340.844 12.6016 339.438 10 339.438C7.36328 339.438 4.97266 340.844 3.63672 343.094C2.33594 345.379 2.33594 348.156 3.63672 350.406C4.97266 352.691 7.36328 354.062 10 354.062ZM10 337.75C13.1992 337.75 16.1523 339.473 17.7695 342.25C19.3867 345.062 19.3867 348.473 17.7695 351.25C16.1523 354.062 13.1992 355.75 10 355.75C6.76562 355.75 3.8125 354.062 2.19531 351.25C0.578125 348.473 0.578125 345.062 2.19531 342.25C3.8125 339.473 6.76562 337.75 10 337.75ZM7.75 350.688C7.25781 350.688 6.90625 350.336 6.90625 349.844C6.90625 349.387 7.25781 349 7.75 349H11.0547L6.30859 344.254C5.95703 343.938 5.95703 343.41 6.30859 343.059C6.625 342.742 7.15234 342.742 7.50391 343.059L12.25 347.84V344.219C12.25 343.762 12.6016 343.375 13.0938 343.375C13.5508 343.375 13.9375 343.762 13.9375 344.219V349.844C13.9375 350.336 13.5508 350.688 13.0938 350.688H7.75Z"
    fill="white"
  />
  <path
    d="M10 400.5C7.65625 400.5 5.53125 401.75 4.34375 403.75C3.1875 405.781 3.1875 408.25 4.34375 410.25C5.53125 412.281 7.65625 413.5 10 413.5C12.3125 413.5 14.4375 412.281 15.625 410.25C16.7812 408.25 16.7812 405.781 15.625 403.75C14.4375 401.75 12.3125 400.5 10 400.5ZM10 415C7.125 415 4.5 413.5 3.0625 411C1.625 408.531 1.625 405.5 3.0625 403C4.5 400.531 7.125 399 10 399C12.8438 399 15.4688 400.531 16.9062 403C18.3438 405.5 18.3438 408.531 16.9062 411C15.4688 413.5 12.8438 415 10 415ZM12 403.5V403.531C12.4062 403.531 12.75 403.844 12.75 404.281C12.75 404.688 12.4062 405.031 12 405.031H9.03125L13.25 409.25C13.5625 409.531 13.5625 410 13.25 410.281C12.9688 410.594 12.5 410.594 12.2188 410.281L8 406.062V409.25C8 409.688 7.65625 410 7.25 410C6.8125 410 6.5 409.688 6.5 409.25V404.25C6.5 403.844 6.8125 403.5 7.25 403.5H12Z"
    fill="currentColor"
  />
  <path
    d="M6.21875 470.531L3.21875 467.531C2.90625 467.25 2.90625 466.781 3.21875 466.469L6.21875 463.5C6.5 463.188 6.96875 463.188 7.25 463.5C7.5625 463.781 7.5625 464.25 7.25 464.531L5.53125 466.25H16.25C16.6562 466.25 17 466.594 17 467C17 467.438 16.6562 467.75 16.25 467.75L5.53125 467.781L7.25 469.5C7.5625 469.781 7.5625 470.25 7.25 470.531C6.96875 470.844 6.5 470.844 6.21875 470.531ZM16.7812 459.531L13.7812 462.531C13.4688 462.844 13 462.844 12.7188 462.531C12.4062 462.25 12.4062 461.781 12.7188 461.469L14.4375 459.75H3.75C3.3125 459.75 3 459.438 3 459C3 458.594 3.3125 458.25 3.75 458.25H14.4375L12.7188 456.531C12.4062 456.25 12.4062 455.781 12.7188 455.469C13 455.188 13.4688 455.188 13.7812 455.469L16.7812 458.5C17.0625 458.781 17.0625 459.25 16.7812 459.531Z"
    fill="currentColor"
  />
  <path
    d="M4.28125 514.969C4.09375 515.062 4 515.219 4 515.375C4 518.25 5.1875 523.156 9.8125 525.375C9.90625 525.438 10.0625 525.438 10.1562 525.375C14.7812 523.188 15.9688 518.25 16 515.375C16 515.219 15.875 515.062 15.7188 514.969L10 512.562L4.28125 514.969ZM16.2812 513.594C16.9688 513.906 17.5 514.562 17.5 515.375C17.4688 518.5 16.1875 524.156 10.8125 526.75C10.2812 527 9.6875 527 9.15625 526.75C3.78125 524.156 2.5 518.5 2.5 515.375C2.46875 514.562 3 513.906 3.6875 513.594L9.5625 511.094C9.6875 511.031 9.84375 511 10 511C10.125 511 10.2812 511.031 10.4062 511.094L16.2812 513.594ZM13.5312 517.531L9.53125 521.531C9.21875 521.844 8.75 521.844 8.46875 521.531L6.46875 519.531C6.15625 519.25 6.15625 518.781 6.46875 518.5C6.75 518.188 7.21875 518.188 7.53125 518.5L9 519.969L12.4688 516.5C12.75 516.188 13.2188 516.188 13.5312 516.5C13.8125 516.781 13.8125 517.25 13.5312 517.531Z"
    fill="currentColor"
  />
  <path
    d="M10.0938 568.625C10.0312 568.594 9.9375 568.594 9.90625 568.625L1.96875 571.844C1.65625 571.938 1.5 572.219 1.5 572.531V582.25C1.5 582.688 1.15625 583 0.75 583C0.3125 583 0 582.688 0 582.25V572.531C0 571.594 0.53125 570.781 1.375 570.438L9.34375 567.219C9.75 567.062 10.2188 567.062 10.6562 567.219L18.5938 570.438C19.4375 570.781 20 571.594 20 572.531V582.25C20 582.688 19.6562 583 19.25 583C18.8125 583 18.5 582.688 18.5 582.25V572.531C18.5 572.219 18.3125 571.938 18.0312 571.844L10.0938 568.625ZM4.5 574.5V582.25C4.5 582.688 4.15625 583 3.75 583C3.3125 583 3 582.688 3 582.25V574.25C3 573.562 3.53125 573 4.25 573H15.75C16.4375 573 17 573.562 17 574.25V582.25C17 582.688 16.6562 583 16.25 583C15.8125 583 15.5 582.688 15.5 582.25V574.5H4.5ZM11.75 580H13.75C14.1562 580 14.5 580.344 14.5 580.75V582.25C14.5 582.688 14.1562 583 13.75 583H11.75C11.3125 583 11 582.688 11 582.25V580.75C11 580.344 11.3125 580 11.75 580ZM5.5 576.75C5.5 576.344 5.8125 576 6.25 576H9.25C9.65625 576 10 576.344 10 576.75V578.25C10 578.688 9.65625 579 9.25 579H6.25C5.8125 579 5.5 578.688 5.5 578.25V576.75ZM6.25 580H9.25C9.65625 580 10 580.344 10 580.75V582.25C10 582.688 9.65625 583 9.25 583H6.25C5.8125 583 5.5 582.688 5.5 582.25V580.75C5.5 580.344 5.8125 580 6.25 580Z"
    fill="currentColor"
  />
  <path
    d="M12.5 627C12.5 626.125 12 625.312 11.25 624.844C10.4688 624.406 9.5 624.406 8.75 624.844C7.96875 625.312 7.5 626.125 7.5 627C7.5 627.906 7.96875 628.719 8.75 629.188C9.5 629.625 10.4688 629.625 11.25 629.188C12 628.719 12.5 627.906 12.5 627ZM6 627C6 625.594 6.75 624.281 8 623.562C9.21875 622.844 10.75 622.844 12 623.562C13.2188 624.281 14 625.594 14 627C14 628.438 13.2188 629.75 12 630.469C10.75 631.188 9.21875 631.188 8 630.469C6.75 629.75 6 628.438 6 627ZM4.53125 637.5H15.4375C15.1562 635.531 13.4688 634 11.4062 634H8.5625C6.5 634 4.8125 635.531 4.53125 637.5ZM3 638.094C3 635 5.46875 632.5 8.5625 632.5H11.4062C14.5 632.5 17 635 17 638.094C17 638.594 16.5625 639 16.0625 639H3.90625C3.40625 639 3 638.594 3 638.094Z"
    fill="currentColor"
  />
</svg>
