<svg
  width="15"
  height="15"
  viewBox="0 0 15 15"
  fill="none"
  xmlns="http://www.w3.org/2000/svg"
>
  <path
    d="M8.15625 10.5938C8.15625 10.9766 7.85547 11.25 7.5 11.25C7.11719 11.25 6.84375 10.9766 6.84375 10.5938V2.99219L4.24609 5.58984C3.97266 5.86328 3.5625 5.86328 3.31641 5.58984C3.04297 5.34375 3.04297 4.93359 3.31641 4.66016L7.03516 0.941406C7.28125 0.695312 7.69141 0.695312 7.9375 0.941406L11.6836 4.66016C11.9297 4.93359 11.9297 5.34375 11.6836 5.58984C11.4102 5.86328 11 5.86328 10.7539 5.58984L8.15625 2.99219V10.5938ZM9.03125 10.375V9.0625H12.75C13.707 9.0625 14.5 9.85547 14.5 10.8125V13C14.5 13.9844 13.707 14.75 12.75 14.75H2.25C1.26562 14.75 0.5 13.9844 0.5 13V10.8125C0.5 9.85547 1.26562 9.0625 2.25 9.0625H5.96875V10.375H2.25C2.00391 10.375 1.8125 10.5938 1.8125 10.8125V13C1.8125 13.2461 2.00391 13.4375 2.25 13.4375H12.75C12.9688 13.4375 13.1875 13.2461 13.1875 13V10.8125C13.1875 10.5938 12.9688 10.375 12.75 10.375H9.03125ZM11 11.9062C11 11.5508 11.2734 11.25 11.6562 11.25C12.0117 11.25 12.3125 11.5508 12.3125 11.9062C12.3125 12.2891 12.0117 12.5625 11.6562 12.5625C11.2734 12.5625 11 12.2891 11 11.9062Z"
    fill="currentColor"
  />
</svg>
