<svg
  width="20"
  height="16"
  viewBox="0 0 20 16"
  fill="none"
  xmlns="http://www.w3.org/2000/svg"
>
  <path
    d="M10.0938 1.625C10.0312 1.59375 9.9375 1.59375 9.90625 1.625L1.96875 4.84375C1.65625 4.9375 1.5 5.21875 1.5 5.53125V15.25C1.5 15.6875 1.15625 16 0.75 16C0.3125 16 0 15.6875 0 15.25V5.53125C0 4.59375 0.53125 3.78125 1.375 3.4375L9.34375 0.21875C9.75 0.0625 10.2188 0.0625 10.6562 0.21875L18.5938 3.4375C19.4375 3.78125 20 4.59375 20 5.53125V15.25C20 15.6875 19.6562 16 19.25 16C18.8125 16 18.5 15.6875 18.5 15.25V5.53125C18.5 5.21875 18.3125 4.9375 18.0312 4.84375L10.0938 1.625ZM4.5 7.5V15.25C4.5 15.6875 4.15625 16 3.75 16C3.3125 16 3 15.6875 3 15.25V7.25C3 6.5625 3.53125 6 4.25 6H15.75C16.4375 6 17 6.5625 17 7.25V15.25C17 15.6875 16.6562 16 16.25 16C15.8125 16 15.5 15.6875 15.5 15.25V7.5H4.5ZM11.75 13H13.75C14.1562 13 14.5 13.3438 14.5 13.75V15.25C14.5 15.6875 14.1562 16 13.75 16H11.75C11.3125 16 11 15.6875 11 15.25V13.75C11 13.3438 11.3125 13 11.75 13ZM5.5 9.75C5.5 9.34375 5.8125 9 6.25 9H9.25C9.65625 9 10 9.34375 10 9.75V11.25C10 11.6875 9.65625 12 9.25 12H6.25C5.8125 12 5.5 11.6875 5.5 11.25V9.75ZM6.25 13H9.25C9.65625 13 10 13.3438 10 13.75V15.25C10 15.6875 9.65625 16 9.25 16H6.25C5.8125 16 5.5 15.6875 5.5 15.25V13.75C5.5 13.3438 5.8125 13 6.25 13Z"
    fill="currentColor"
  />
</svg>
