<svg width="1000" height="1000" viewBox="0 0 1000 1000" fill="none" xmlns="http://www.w3.org/2000/svg">
<path d="M315.119 758.333C365.049 758.333 405.285 742.991 436.31 712.786C414.422 718.824 359.832 720.086 316.573 676.827C286.033 676.827 261.795 667.717 244.828 649.977C227.861 632.238 219.62 610.183 219.62 584.292C219.62 557.443 228.346 535.388 245.313 518.128C219.697 542.447 171.619 614.467 184.232 707.991C218.651 741.553 262.279 758.333 315.119 758.333Z" fill="url(#paint0_linear_2674_37686)"/>
<path d="M133.333 583.813C133.333 633.196 150.3 674.429 184.234 707.991C171.62 614.467 219.698 542.447 245.314 518.128C262.281 500.867 284.58 492.237 311.242 492.237H387.5C416.667 492.237 483.333 501.75 483.333 408.333L310.272 408.333C260.342 408.333 218.167 425.114 184.234 459.155C150.3 493.196 133.333 534.429 133.333 583.813Z" fill="url(#paint1_linear_2674_37686)"/>
<path d="M436.313 712.785C467.822 682.1 483.335 642.306 483.335 592.922V570.729C483.335 558.881 483.335 558.881 470.834 558.881H316.576C315.018 558.881 314.06 558.881 313.47 559.347C312.529 560.092 312.529 562.028 312.529 567.056C312.529 630.05 368.368 634.623 394.623 632.717C382.019 661.963 355.842 676.826 316.576 676.826C359.835 720.086 414.425 718.824 436.313 712.785Z" fill="url(#paint2_linear_2674_37686)"/>
<path fill-rule="evenodd" clip-rule="evenodd" d="M691.667 408.333C595.017 408.333 516.667 486.683 516.667 583.333C516.667 679.983 595.017 758.333 691.667 758.333C788.317 758.333 866.667 679.983 866.667 583.333C866.667 486.683 788.317 408.333 691.667 408.333ZM666.667 520.833C666.667 513.93 672.263 508.333 679.167 508.333H704.167C711.07 508.333 716.667 513.93 716.667 520.833V558.333H754.167C761.07 558.333 766.667 563.93 766.667 570.833V595.833C766.667 602.737 761.07 608.333 754.167 608.333H716.667V645.833C716.667 652.737 711.07 658.333 704.167 658.333H679.167C672.263 658.333 666.667 652.737 666.667 645.833V608.333H629.167C622.263 608.333 616.667 602.737 616.667 595.833V570.833C616.667 563.93 622.263 558.333 629.167 558.333H666.667V520.833Z" fill="url(#paint3_linear_2674_37686)"/>
<path d="M133.333 241.667H171.377C181.308 241.667 189.56 244.952 196.274 251.524C202.987 258.095 206.344 266.524 206.344 276.667C206.344 286.809 202.987 295.238 196.274 301.809C189.56 308.381 181.308 311.667 171.377 311.667H158.37V341.667H133.333V241.667ZM158.37 287.381H171.377C176.972 287.381 181.308 282.952 181.308 276.667C181.308 270.381 176.972 266.095 171.377 266.095H158.37V287.381Z" fill="#00A66A"/>
<path d="M303.664 278.667V241.667H328.56V341.667H303.664V303.238H276.11V341.667H251.074V241.667H276.11V278.667H303.664Z" fill="#00A66A"/>
<path d="M465.776 341.667H438.782L434.586 327.238H401.996L397.8 341.667H370.666L402.975 241.667H433.467L465.776 341.667ZM418.221 271.238L408.43 305.238H428.152L418.221 271.238Z" fill="#00A66A"/>
<path d="M585.768 341.667H558.914L541.85 309.381H532.898V341.667H507.862V241.667H547.025C556.956 241.667 565.348 244.952 572.061 251.524C578.915 257.952 582.272 266.238 582.272 276.238C582.272 288.238 575.838 298.809 565.627 304.667L585.768 341.667ZM546.745 265.238H532.898V287.667H546.745C552.899 287.809 557.235 283.238 557.235 276.524C557.235 269.809 552.899 265.238 546.745 265.238Z" fill="#00A66A"/>
<path d="M704.533 241.667H729.429V341.667H704.533V287.809L680.755 327.952H678.237L654.6 287.952V341.667H629.563V241.667H654.6L679.496 284.381L704.533 241.667Z" fill="#00A66A"/>
<path d="M866.667 341.667H839.672L835.476 327.238H802.887L798.691 341.667H771.557L803.866 241.667H834.357L866.667 341.667ZM819.112 271.238L809.321 305.238H829.042L819.112 271.238Z" fill="#00A66A"/>
<defs>
<linearGradient id="paint0_linear_2674_37686" x1="191.666" y1="616.563" x2="420.832" y2="749.896" gradientUnits="userSpaceOnUse">
<stop stop-color="#2BC48A"/>
<stop offset="1" stop-color="#1B9969"/>
</linearGradient>
<linearGradient id="paint1_linear_2674_37686" x1="483.333" y1="408.23" x2="183.333" y2="708.23" gradientUnits="userSpaceOnUse">
<stop stop-color="#2BC48A"/>
<stop offset="1" stop-color="#209E6F"/>
</linearGradient>
<linearGradient id="paint2_linear_2674_37686" x1="358.334" y1="704.063" x2="482.539" y2="565.416" gradientUnits="userSpaceOnUse">
<stop stop-color="#2BC48A"/>
<stop offset="1" stop-color="#1B9969"/>
</linearGradient>
<linearGradient id="paint3_linear_2674_37686" x1="529.755" y1="551.762" x2="854.105" y2="730.121" gradientUnits="userSpaceOnUse">
<stop stop-color="#2BC48A"/>
<stop offset="1" stop-color="#1B9969"/>
</linearGradient>
</defs>
</svg>
